<svg id="Layer_1" data-name="Layer 1" xmlns="http://www.w3.org/2000/svg" viewBox="0 0 228.74 189.4"><defs><style>.cls-1{fill:#ef6e16}</style></defs><path class="cls-1" d="M471.16 493.07a53.86 53.86 0 0 0 11.34 37.22c7.86 10.06 21 19.59 34.41 16.56 13.73-3.11 22.65-16.54 27.79-28.66 6.42-15.16 8.46-31.68 10.95-47.81a342.74 342.74 0 0 1 12-52c4.69-14.74 10.43-30.2 22.39-40.65 5.66-5 16.11-11.07 20.94-2 3.08 5.81 2.3 13.38 1.07 19.58a62.61 62.61 0 0 1-20.65 35 55.81 55.81 0 0 1-19.95 11.07c-8.7 2.65-17.86 2.32-26.68 4.34-14.72 3.39-30 19.36-18.26 34 3.55 4.44 9.07-1.24 7.22-5.57-2.37-5.52 3.11-12.47 7.71-14.85 7.38-3.83 16.56-3.4 24.59-4.62a67 67 0 0 0 36.28-18.48A68.89 68.89 0 0 0 622 401c2.29-11.25 2.63-28.52-8.49-35.56-12.71-8.05-26.94 4.57-34.2 14.31-8.94 12-13.67 26.64-17.66 40.87a357.07 357.07 0 0 0-10 50.92c-2.14 16.67-4 33.79-11.11 49.21-3.87 8.37-9.51 16.69-17.72 21.31-9.38 5.27-19.25 3.19-27.92-2.52-15.32-10.09-23.93-28.31-23.1-46.47 0-.4-.58-.39-.61 0z" transform="translate(-471 -362.88)"/><path class="cls-1" d="M563.19 519.94c3.41-10.25 11.8-17 19-24.48 6.54-6.78 11.4-14.1 12.8-23.54.11-.81-.2-1.88-1.16-2-18.37-3.08-24.86 27.59-24.25 40.3.4 8.46 3.3 17.81 11.69 21.48 7.37 3.21 16.69.85 19.61-7.09 2.15-5.87-6.09-8.05-9.25-3.9-2.5 3.27-7.07 1.7-9.19-1.17-3.34-4.5-3.61-11-3.7-16.39-.17-10 1.56-28.87 14.65-30l-1.66-1.66c.92 11.39-8.59 20.27-15.89 27.7-5.89 6-11.46 12.23-14 20.4-.26.84 1 1.19 1.31.36z" transform="translate(-471 -362.88)"/><path class="cls-1" d="M608.91 480.38c-5.3 10.9-9.46 25.1-8.33 37.36 1 11 11.83 19.74 21.77 11.9 4.51-3.57 7.56-9.18 10.62-13.95q5.78-9 10.9-18.39a309.94 309.94 0 0 0 17-36.83q3.52-9.15 6.47-18.5c2-6.22 4.39-12.73 5.12-19.24.49-4.4-.11-9.36-3.51-12.56-4.42-4.18-11-3.15-14.76 1.27-3.48 4.06-6.07 9.4-8.75 14a86.71 86.71 0 0 0-6.67 14.56 139.88 139.88 0 0 0-7.46 34 188.59 188.59 0 0 0-.78 20.58c.1 6.51.05 13.51 2.06 19.78 2.93 9.16 12.81 17.54 22.42 11.68a1.57 1.57 0 0 0-1.59-2.71c-11.85 5.77-17.85-9.56-18.58-18.36a173.86 173.86 0 0 1 0-26.22c1.19-17.56 5.27-35 15.17-49.76 2.29-3.41 5.6-7.92 9.47-9.64.43-.19 2.65-.41 1.93-.88-.54-.35-.11.21 0 .56.59 1.83-.36 4.55-.8 6.28a283.67 283.67 0 0 1-8.38 27.24 305.67 305.67 0 0 1-25.41 53.34c-2.68 4.46-5.36 9.06-8.45 13.26-1.43 1.93-2.94 4.05-5.58 3.85-3.28-.23-5.13-3.31-6-6.12-3.56-11.42-.43-25.11 3.06-36.12.17-.55-.68-.93-.94-.4z" transform="translate(-471 -362.88)"/><path class="cls-1" d="M683 493.08c-7-3.16-15.82-2-22.54 1.33-8.26 4.13-12.27 13.49-11.38 22.44.84 8.43 6.22 16.88 15.63 16.15 7.48-.58 14.07-6.38 13.11-14.37a1.62 1.62 0 0 0-3.24 0c-.57 6.91-8 11.68-12.84 5.16-2.76-3.73-3.5-9-2.59-13.49 2.36-11.71 11.43-17.71 23.06-15.34 1.06.22 1.92-1.37.79-1.88z" transform="translate(-471 -362.88)"/><path class="cls-1" d="M681.68 492.37c-7.15 9.06-13.07 22.55-7.78 34.08 2.12 4.63 6.25 8.06 11.53 7.85 4.54-.17 8.6-2.89 9.7-7.38.88-3.62-3.8-5.39-5.83-2.46-1.53 2.21-4.77.29-5.88-1.29-1.43-2-1.48-5-1.42-7.37a57.74 57.74 0 0 1 4.21-19.93c1.13-2.69-2.3-6.33-4.53-3.5zM614.49 461.37l-.6-.32c-5.29-2.81-9.87 5-4.7 8l.58.35a5.06 5.06 0 1 0 0-8.74l-.58.35c-5.17 3.08-.59 10.85 4.7 8l.6-.31a4.33 4.33 0 0 0 0-7.41zM699.55 546.5l.08-.71-.18 1.38c0-.23.09-.46.14-.68a4.73 4.73 0 0 0-5.82-5.83c-.23.06-.45.11-.68.15l1.37-.18-.7.08-1.54.21-1.39.58a5.52 5.52 0 0 0-2.36 2.77 2.79 2.79 0 0 0-.4 1.46 2.88 2.88 0 0 0 0 1.54 5.45 5.45 0 0 0 1.59 3.32 6.42 6.42 0 0 0 2.56 1.49 5.92 5.92 0 0 0 3.07 0 5.68 5.68 0 0 0 3-2.07 2.92 2.92 0 0 0 .75-1.28 4.38 4.38 0 0 0 .5-2.23z" transform="translate(-471 -362.88)"/></svg>